# xmcd
#
# Track frame offsets: 
#        150
#        11247
#        25152
#        38545
#        54987
#        72405
#        89610
#        115430
#        125895
#        130685
#        155320
#        172115
#        181275
#        191772
#        205510
#        217495
#        244250
#        267647
#
# Disc length: 3788 seconds
#
# Revision: 0
# Processed by: cddbd v1.4PL0 Copyright (c) Steve Scherf et al.
# Submitted via: ExactAudioCopy v0.90b3
#
DISCID=140eca12
DTITLE=The Yardbirds - The Masters - Disc 2
DYEAR=1900
DGENRE=Rock
TTITLE0=Boom Boom
TTITLE1=Jeff's Blues
TTITLE2=You Can't Judge A Book
TTITLE3=Bye Bye Bird
TTITLE4=Pontiac Blues
TTITLE5=I Don't Care No More
TTITLE6=Take It Easy Baby
TTITLE7=A Certain Girl
TTITLE8=Slow Walk
TTITLE9=Respectable
TTITLE10=Louise
TTITLE11=I Ain't Got You Wrong
TTITLE12=Putty (In Your Hands)
TTITLE13=Climbing Through
TTITLE14=Baby What's Wrong
TTITLE15=I Wish You Would
TTITLE16=Here 'Tis
TTITLE17=I Ain't Done Wrong
EXTD=
EXTT0=
EXTT1=
EXTT2=
EXTT3=
EXTT4=
EXTT5=
EXTT6=
EXTT7=
EXTT8=
EXTT9=
EXTT10=
EXTT11=
EXTT12=
EXTT13=
EXTT14=
EXTT15=
EXTT16=
EXTT17=
PLAYORDER=
